<mxfile host="app.diagrams.net" modified="2021-07-21T09:26:58.950Z" agent="5.0 (Macintosh; Intel Mac OS X 10_15_7) AppleWebKit/537.36 (KHTML, like Gecko) Chrome/91.0.4472.114 Safari/537.36" etag="SQyS4TWYvUo1SsgjDxBy" version="14.8.2" type="github">
  <diagram id="ClTNFUKvuvf2w0NLNEgt" name="Page-1">
    <mxGraphModel dx="988" dy="643" grid="1" gridSize="10" guides="1" tooltips="1" connect="1" arrows="1" fold="1" page="1" pageScale="1" pageWidth="827" pageHeight="1169" math="0" shadow="0">
      <root>
        <mxCell id="0" />
        <mxCell id="1" parent="0" />
        <mxCell id="ZArnUsJLgNc-e0AQraZ6-2" value="Notification DB" style="swimlane;fontStyle=0;childLayout=stackLayout;horizontal=1;startSize=26;horizontalStack=0;resizeParent=1;resizeParentMax=0;resizeLast=0;collapsible=1;marginBottom=0;gradientColor=none;" vertex="1" parent="1">
          <mxGeometry x="610" y="190" width="140" height="260" as="geometry">
            <mxRectangle x="460" y="300" width="110" height="26" as="alternateBounds" />
          </mxGeometry>
        </mxCell>
        <mxCell id="ZArnUsJLgNc-e0AQraZ6-3" value="N_ID" style="text;strokeColor=none;fillColor=none;align=left;verticalAlign=top;spacingLeft=4;spacingRight=4;overflow=hidden;rotatable=0;points=[[0,0.5],[1,0.5]];portConstraint=eastwest;" vertex="1" parent="ZArnUsJLgNc-e0AQraZ6-2">
          <mxGeometry y="26" width="140" height="26" as="geometry" />
        </mxCell>
        <mxCell id="ZArnUsJLgNc-e0AQraZ6-5" value="N_Name&#xa;" style="text;strokeColor=none;fillColor=none;align=left;verticalAlign=top;spacingLeft=4;spacingRight=4;overflow=hidden;rotatable=0;points=[[0,0.5],[1,0.5]];portConstraint=eastwest;rounded=0;" vertex="1" parent="ZArnUsJLgNc-e0AQraZ6-2">
          <mxGeometry y="52" width="140" height="26" as="geometry" />
        </mxCell>
        <mxCell id="ZArnUsJLgNc-e0AQraZ6-16" value="Status" style="text;strokeColor=none;fillColor=none;align=left;verticalAlign=top;spacingLeft=4;spacingRight=4;overflow=hidden;rotatable=0;points=[[0,0.5],[1,0.5]];portConstraint=eastwest;rounded=0;" vertex="1" parent="ZArnUsJLgNc-e0AQraZ6-2">
          <mxGeometry y="78" width="140" height="26" as="geometry" />
        </mxCell>
        <mxCell id="ZArnUsJLgNc-e0AQraZ6-7" value="Business Name" style="text;strokeColor=none;fillColor=none;align=left;verticalAlign=top;spacingLeft=4;spacingRight=4;overflow=hidden;rotatable=0;points=[[0,0.5],[1,0.5]];portConstraint=eastwest;" vertex="1" parent="ZArnUsJLgNc-e0AQraZ6-2">
          <mxGeometry y="104" width="140" height="26" as="geometry" />
        </mxCell>
        <mxCell id="ZArnUsJLgNc-e0AQraZ6-8" value="Business Email" style="text;strokeColor=none;fillColor=none;align=left;verticalAlign=top;spacingLeft=4;spacingRight=4;overflow=hidden;rotatable=0;points=[[0,0.5],[1,0.5]];portConstraint=eastwest;" vertex="1" parent="ZArnUsJLgNc-e0AQraZ6-2">
          <mxGeometry y="130" width="140" height="26" as="geometry" />
        </mxCell>
        <mxCell id="ZArnUsJLgNc-e0AQraZ6-9" value="Business Mobile" style="text;strokeColor=none;fillColor=none;align=left;verticalAlign=top;spacingLeft=4;spacingRight=4;overflow=hidden;rotatable=0;points=[[0,0.5],[1,0.5]];portConstraint=eastwest;" vertex="1" parent="ZArnUsJLgNc-e0AQraZ6-2">
          <mxGeometry y="156" width="140" height="26" as="geometry" />
        </mxCell>
        <mxCell id="ZArnUsJLgNc-e0AQraZ6-10" value="Reminder Interval" style="text;strokeColor=none;fillColor=none;align=left;verticalAlign=top;spacingLeft=4;spacingRight=4;overflow=hidden;rotatable=0;points=[[0,0.5],[1,0.5]];portConstraint=eastwest;" vertex="1" parent="ZArnUsJLgNc-e0AQraZ6-2">
          <mxGeometry y="182" width="140" height="26" as="geometry" />
        </mxCell>
        <mxCell id="ZArnUsJLgNc-e0AQraZ6-11" value="Amount Due" style="text;strokeColor=none;fillColor=none;align=left;verticalAlign=top;spacingLeft=4;spacingRight=4;overflow=hidden;rotatable=0;points=[[0,0.5],[1,0.5]];portConstraint=eastwest;" vertex="1" parent="ZArnUsJLgNc-e0AQraZ6-2">
          <mxGeometry y="208" width="140" height="26" as="geometry" />
        </mxCell>
        <mxCell id="ZArnUsJLgNc-e0AQraZ6-12" value="Due date" style="text;strokeColor=none;fillColor=none;align=left;verticalAlign=top;spacingLeft=4;spacingRight=4;overflow=hidden;rotatable=0;points=[[0,0.5],[1,0.5]];portConstraint=eastwest;" vertex="1" parent="ZArnUsJLgNc-e0AQraZ6-2">
          <mxGeometry y="234" width="140" height="26" as="geometry" />
        </mxCell>
        <mxCell id="ZArnUsJLgNc-e0AQraZ6-15" style="edgeStyle=orthogonalEdgeStyle;rounded=0;orthogonalLoop=1;jettySize=auto;html=1;entryX=0.5;entryY=0;entryDx=0;entryDy=0;" edge="1" parent="1" source="ZArnUsJLgNc-e0AQraZ6-13" target="ZArnUsJLgNc-e0AQraZ6-2">
          <mxGeometry relative="1" as="geometry" />
        </mxCell>
        <mxCell id="ZArnUsJLgNc-e0AQraZ6-18" style="edgeStyle=orthogonalEdgeStyle;rounded=0;orthogonalLoop=1;jettySize=auto;html=1;entryX=1;entryY=0.5;entryDx=0;entryDy=0;" edge="1" parent="1" source="ZArnUsJLgNc-e0AQraZ6-13" target="ZArnUsJLgNc-e0AQraZ6-17">
          <mxGeometry relative="1" as="geometry" />
        </mxCell>
        <mxCell id="ZArnUsJLgNc-e0AQraZ6-13" value="DB" style="shape=cylinder3;whiteSpace=wrap;html=1;boundedLbl=1;backgroundOutline=1;size=15;rounded=0;gradientColor=none;" vertex="1" parent="1">
          <mxGeometry x="650" y="90" width="60" height="70" as="geometry" />
        </mxCell>
        <mxCell id="ZArnUsJLgNc-e0AQraZ6-17" value="Notification Service&lt;br&gt;(NodeJS)" style="rounded=0;whiteSpace=wrap;html=1;gradientColor=none;" vertex="1" parent="1">
          <mxGeometry x="400" y="95" width="120" height="60" as="geometry" />
        </mxCell>
        <mxCell id="ZArnUsJLgNc-e0AQraZ6-19" value="&lt;font color=&quot;#000000&quot;&gt;Message API&lt;br&gt;(MSG91)&lt;/font&gt;" style="rounded=0;whiteSpace=wrap;html=1;strokeColor=#B20000;fontColor=#ffffff;fillColor=none;" vertex="1" parent="1">
          <mxGeometry x="339" y="330" width="120" height="60" as="geometry" />
        </mxCell>
        <mxCell id="ZArnUsJLgNc-e0AQraZ6-20" value="Email API&lt;br&gt;(Nodemailer)" style="rounded=0;whiteSpace=wrap;html=1;gradientColor=none;" vertex="1" parent="1">
          <mxGeometry x="461" y="330" width="120" height="60" as="geometry" />
        </mxCell>
        <mxCell id="ZArnUsJLgNc-e0AQraZ6-21" value="" style="curved=1;endArrow=classic;html=1;exitX=0.5;exitY=1;exitDx=0;exitDy=0;entryX=0.5;entryY=0;entryDx=0;entryDy=0;fillColor=#e51400;strokeColor=#FF0000;" edge="1" parent="1" source="ZArnUsJLgNc-e0AQraZ6-17" target="ZArnUsJLgNc-e0AQraZ6-19">
          <mxGeometry width="50" height="50" relative="1" as="geometry">
            <mxPoint x="400" y="250" as="sourcePoint" />
            <mxPoint x="450" y="200" as="targetPoint" />
            <Array as="points">
              <mxPoint x="340" y="200" />
            </Array>
          </mxGeometry>
        </mxCell>
        <mxCell id="ZArnUsJLgNc-e0AQraZ6-25" value="On hold" style="edgeLabel;html=1;align=center;verticalAlign=middle;resizable=0;points=[];" vertex="1" connectable="0" parent="ZArnUsJLgNc-e0AQraZ6-21">
          <mxGeometry x="-0.0771" y="14" relative="1" as="geometry">
            <mxPoint x="32" y="18" as="offset" />
          </mxGeometry>
        </mxCell>
        <mxCell id="ZArnUsJLgNc-e0AQraZ6-22" value="" style="curved=1;endArrow=classic;html=1;entryX=0.5;entryY=0;entryDx=0;entryDy=0;exitX=0.5;exitY=1;exitDx=0;exitDy=0;" edge="1" parent="1" source="ZArnUsJLgNc-e0AQraZ6-17" target="ZArnUsJLgNc-e0AQraZ6-20">
          <mxGeometry width="50" height="50" relative="1" as="geometry">
            <mxPoint x="430" y="160" as="sourcePoint" />
            <mxPoint x="330" y="290" as="targetPoint" />
            <Array as="points">
              <mxPoint x="570" y="190" />
            </Array>
          </mxGeometry>
        </mxCell>
        <mxCell id="ZArnUsJLgNc-e0AQraZ6-23" value="Frontend&lt;br&gt;(NextJS)" style="rounded=0;whiteSpace=wrap;html=1;gradientColor=none;" vertex="1" parent="1">
          <mxGeometry x="110" y="95" width="120" height="60" as="geometry" />
        </mxCell>
        <mxCell id="ZArnUsJLgNc-e0AQraZ6-24" value="REST APIs&lt;br&gt;(CRUD)" style="endArrow=classic;startArrow=classic;html=1;exitX=1;exitY=0.5;exitDx=0;exitDy=0;" edge="1" parent="1" source="ZArnUsJLgNc-e0AQraZ6-23" target="ZArnUsJLgNc-e0AQraZ6-17">
          <mxGeometry width="50" height="50" relative="1" as="geometry">
            <mxPoint x="350" y="270" as="sourcePoint" />
            <mxPoint x="400" y="220" as="targetPoint" />
          </mxGeometry>
        </mxCell>
        <mxCell id="ZArnUsJLgNc-e0AQraZ6-26" value="&lt;div style=&quot;text-align: center&quot;&gt;All APIs&lt;/div&gt;&lt;ul&gt;&lt;li&gt;POST /createNotification&lt;/li&gt;&lt;li&gt;PUT /updateNotification&lt;/li&gt;&lt;li&gt;DELETE /deleteNotification&lt;/li&gt;&lt;li&gt;GET /allNotifications&lt;/li&gt;&lt;li&gt;POST /statusMailer?value=on or off&lt;/li&gt;&lt;li&gt;POST /statusMessage?value=on or off&lt;/li&gt;&lt;/ul&gt;" style="text;strokeColor=none;fillColor=none;html=1;whiteSpace=wrap;verticalAlign=middle;overflow=hidden;rounded=0;spacing=2;" vertex="1" parent="1">
          <mxGeometry x="40" y="160" width="260" height="120" as="geometry" />
        </mxCell>
        <mxCell id="ZArnUsJLgNc-e0AQraZ6-27" value="&lt;font style=&quot;font-size: 20px&quot;&gt;Message Notification Service&lt;/font&gt;" style="text;html=1;strokeColor=none;fillColor=none;align=center;verticalAlign=middle;whiteSpace=wrap;rounded=0;" vertex="1" parent="1">
          <mxGeometry x="276" y="30" width="276" height="20" as="geometry" />
        </mxCell>
      </root>
    </mxGraphModel>
  </diagram>
</mxfile>
